:SAMPLES-PER-SECOND 24
:FULLY-SPECIFIED
:DEGREES
293
root  2.3289 36.76 56.3058 -174.677 -60.0676 169.285
RightUpLeg  -18.9319 -21.2549 -16.5723
RightLeg  45.6074 -6.26029 -7.09036
RightFoot  -12.5977 -0.0125689 6.13371
RightToes  -1.74623e-010 0 -2.59999e-017
Spine  8.09578 -2.46033 -12.186
Spine1  14.3083 -6.55151 7.54426
HEad  -8.71141 -30.8001 14.3276
LeftShoulder1  1.64558 -2.94148 -19.0023
LeftArm  28.495 -14.3026 -53.3616
LeftForeArm  86.5264 -79.8127 -88.5324
LeftHand  0.224304 12.0791 4.78406
RightShoulder  3.36251 5.607 31.0172
RightArm  -19.5296 -19.0316 36.57
RightForeArm  15.7913 5.7762 11.4817
RightHand  -0.472205 -1.3239 -13.4745
LeftUpLeg  -2.83074 22.6241 9.48696
LeftLeg  37.887 -5.07019 -3.80096
LeftFoot  -21.9259 -0.967473 -11.8131
LeftToes  -6.27559e-011 -2.10356e-011 8.24929e-012
294
root  2.08614 37.6718 56.2326 -176.005 -61.7051 171.102
RightUpLeg  -15.409 -21.7862 -16.2177
RightLeg  40.1142 -6.18327 -5.8241
RightFoot  -8.42117 -0.294044 9.26553
RightToes  -1.74623e-010 0 -2.59999e-017
Spine  7.09445 -2.42168 -10.5813
Spine1  13.835 -5.94345 6.65853
HEad  -8.39433 -32.5062 13.7059
LeftShoulder1  1.72959 -2.98437 -20.2122
LeftArm  26.9183 -4.66401 -50.1953
LeftForeArm  92.0153 -79.6998 -95.5232
LeftHand  0.44638 12.0336 8.57066
RightShoulder  3.34517 5.58369 30.9197
RightArm  -15.1591 -23.1381 40.1488
RightForeArm  24.7633 6.95995 11.2727
RightHand  -0.204578 -1.99034 -6.72666
LeftUpLeg  -1.032 20.4487 9.72901
LeftLeg  32.3703 -4.17297 -2.46938
LeftFoot  -17.2789 -0.523809 -12.0544
LeftToes  -6.27559e-011 -2.10356e-011 8.24929e-012
295
root  1.80899 39.0802 56.006 -177.916 -61.9178 173.471
RightUpLeg  -11.8102 -20.5689 -15.3893
RightLeg  33.0617 -5.87904 -4.33641
RightFoot  0.404595 -1.25257 12.2722
RightToes  -1.74623e-010 0 -2.59999e-017
Spine  6.37538 -1.95255 -8.83475
Spine1  12.457 -4.98139 6.40264
HEad  -6.24419 -33.5367 11.7407
LeftShoulder1  1.7398 -2.84353 -21.0128
LeftArm  25.1519 6.32327 -47.9043
LeftForeArm  95.5541 -79.4317 -101.484
LeftHand  0.413272 11.3858 8.81252
RightShoulder  3.25879 5.49863 30.2992
RightArm  -5.07959 -27.3082 42.0348
RightForeArm  19.811 12.5977 10.1077
RightHand  0.0719824 -1.26083 2.28388
LeftUpLeg  1.73277 17.9331 10.1793
LeftLeg  25.3272 -2.16073 -0.751693
LeftFoot  -8.2461 0.411953 -13.1739
LeftToes  -6.27559e-011 -2.10356e-011 8.24929e-012
296
root  1.60128 40.3631 55.7564 -178.728 -61.4021 174.424
RightUpLeg  -9.44787 -18.0253 -14.8891
RightLeg  27.2653 -5.21133 -3.14026
RightFoot  9.41155 -1.66247 9.57798
RightToes  -1.74623e-010 0 -2.59999e-017
Spine  5.98013 -1.31133 -7.30424
Spine1  10.9572 -3.66008 5.27443
HEad  -4.6 -34.1401 10.8458
LeftShoulder1  1.71593 -2.93462 -20.2088
LeftArm  23.044 15.2362 -47.3816
LeftForeArm  101.115 -79.4274 -104.489
LeftHand  0.257305 11.0724 6.20873
RightShoulder  3.12221 5.33284 29.4168
RightArm  6.3154 -30.4141 42.7842
RightForeArm  6.06671 19.295 6.71429
RightHand  0.216451 -1.78186 7.35924
LeftUpLeg  4.07093 15.4589 10.4173
LeftLeg  19.4504 0.61396 -0.268935
LeftFoot  2.02106 1.65032 -14.1286
LeftToes  -6.27559e-011 -2.10356e-011 8.24929e-012
297
root  1.47876 41.0671 55.5957 -178.166 -61.2623 174.181
RightUpLeg  -8.48363 -14.9164 -14.9739
RightLeg  24.2525 -1.92629 -1.17556
RightFoot  10.6067 -0.66854 3.76436
RightToes  -1.74623e-010 0 -2.59999e-017
Spine  5.14675 -1.44357 -6.10119
Spine1  10.3258 -3.14184 3.79079
HEad  -4.83227 -33.6544 10.6814
LeftShoulder1  1.72929 -3.34016 -18.725
LeftArm  19.6732 21.7423 -47.4523
LeftForeArm  111.78 -79.1889 -111.485
LeftHand  0.134319 10.0965 4.44238
RightShoulder  2.86493 5.01472 27.6667
RightArm  9.25379 -30.468 42.5908
RightForeArm  2.74577 24.0658 5.117
RightHand  0.186714 -2.43851 7.97959
LeftUpLeg  4.71421 12.3736 9.74073
LeftLeg  16.1732 4.16731 -0.0388933
LeftFoot  8.56681 2.19461 -12.7996
LeftToes  -6.27559e-011 -2.10356e-011 8.24929e-012
298
root  1.49404 41.1074 55.526 -178.226 -61.362 174.482
RightUpLeg  -8.66654 -11.1169 -15.047
RightLeg  24.5236 2.39663 0.97795
RightFoot  7.28044 -0.426143 2.90316
RightToes  -1.74623e-010 0 -2.59999e-017
Spine  4.68449 -1.91966 -5.06355
Spine1  10.4334 -3.31404 2.99579
HEad  -6.92189 -32.4531 10.497
LeftShoulder1  1.7165 -3.53246 -17.7796
LeftArm  16.7194 24.0538 -47.0701
LeftForeArm  114.555 -78.7343 -115.985
LeftHand  0.111882 9.61893 4.29486
RightShoulder  2.58199 4.66867 25.5494
RightArm  7.02358 -27.3914 41.076
RightForeArm  6.47405 27.9273 5.68646
RightHand  0.1321 -2.32835 5.60092
LeftUpLeg  3.75253 13.2533 9.48579
LeftLeg  17.7049 3.25467 0.801378
LeftFoot  9.02283 1.71396 -9.83251
LeftToes  -6.27559e-011 -2.10356e-011 8.24929e-012
299
root  1.62574 40.5375 55.4147 -179.046 -61.323 174.632
RightUpLeg  -8.72857 -8.21944 -15.3778
RightLeg  26.6541 5.30027 2.6647
RightFoot  4.88838 -1.09532 7.94103
RightToes  -1.74623e-010 0 -2.59999e-017
Spine  5.93201 -1.89777 -4.98074
Spine1  9.89279 -3.31377 2.748
HEad  -9.39676 -31.7524 10.4781
LeftShoulder1  1.66751 -3.5235 -17.0579
LeftArm  15.0818 22.4551 -46.653
LeftForeArm  111.126 -78.7112 -114.917
LeftHand  0.126919 9.73393 4.58242
RightShoulder  2.37141 4.36487 24.0215
RightArm  4.80159 -23.4013 38.4687
RightForeArm  6.91559 31.6056 6.56312
RightHand  -0.0338685 -2.23513 -0.675729
LeftUpLeg  2.93192 14.3498 9.9128
LeftLeg  22.4907 1.50126 1.07901
LeftFoot  4.73218 1.25932 -9.15511
LeftToes  -6.27559e-011 -2.10356e-011 8.24929e-012
